<svg class="svg-icon" style="width: 1em; height: 1em;vertical-align: middle;fill: currentColor;overflow: hidden;" viewBox="0 0 1024 1024" version="1.1" xmlns="http://www.w3.org/2000/svg"><path d="M896 352a32 32 0 0 0-32-32c-8.288 0-15.776 3.232-21.456 8.4l-0.08-0.08L512 628.752 181.52 328.32l-0.08 0.08A31.744 31.744 0 0 0 160 320a32 32 0 0 0-32 32c0 9.392 4.112 17.744 10.544 23.6l-0.064 0.08 352 320 0.064-0.08c5.68 5.168 13.168 8.4 21.456 8.4s15.776-3.232 21.456-8.416l0.08 0.08 352-320-0.08-0.08c6.432-5.84 10.544-14.208 10.544-23.584z" fill="#FFFFFF" /></svg>